<svg width="246" height="137" viewBox="0 0 246 137" fill="none" xmlns="http://www.w3.org/2000/svg">
<path d="M0.0238496 123.46L0.0511539 109.917L13.8161 109.893L27.5845 109.866V96.2714C27.5845 85.8313 27.6118 82.6429 27.7073 82.5506C27.8027 82.4549 30.9806 82.4276 41.3972 82.4276H54.9644V55.0884L41.2984 55.0611L27.6357 55.0372L27.5845 27.6468H0V0H27.5845V27.6468H41.1142C48.5542 27.6468 54.7155 27.6741 54.8042 27.7083C54.9508 27.7629 54.9644 29.0684 54.9644 41.4291V55.085H82.2421V82.4241H54.9644L54.9372 96.1177L54.9133 109.811L27.5845 109.862V136.997H0L0.0238496 123.457V123.46ZM82.2864 136.874C82.2591 136.802 82.2523 130.709 82.2626 123.33L82.2898 109.917L95.9525 109.893L109.615 109.866V96.2099C109.615 83.8492 109.632 82.5472 109.775 82.4891C109.864 82.455 116.002 82.4276 123.414 82.4276H136.893V55.0884L123.278 55.0611L109.663 55.0372L109.639 41.3402L109.615 27.6468L95.9525 27.6194L82.2898 27.5955V0.051311H109.567L109.591 13.8473L109.619 27.6434L123.23 27.6706L136.842 27.6946L136.869 41.3881L136.893 55.0816L150.556 55.1055L164.218 55.1329L164.245 68.7751L164.269 82.4208H136.889V109.862H109.612L109.585 123.402L109.561 136.942L95.9457 136.966C85.1063 136.986 82.3205 136.966 82.2796 136.863L82.2864 136.874ZM164.321 136.874C164.293 136.802 164.286 130.712 164.297 123.334L164.324 109.921L177.939 109.897L191.55 109.869V96.2748C191.55 85.8347 191.581 82.6463 191.673 82.554C191.769 82.4583 194.947 82.431 205.363 82.431H218.93V55.0918H205.302C192.969 55.0918 191.67 55.0782 191.612 54.9312C191.578 54.8424 191.55 48.6672 191.55 41.2104V27.6502H164.273L164.3 13.8507L164.324 0.0547317L177.939 0.0273659L191.55 0.00342073V27.6502H205.08C212.52 27.6502 218.681 27.6775 218.77 27.7117C218.917 27.7664 218.93 29.0718 218.93 41.4291V55.0884L232.44 55.1123L245.949 55.1397L245.976 68.7819L246 82.4276H218.927L218.903 96.1211L218.876 109.815L205.213 109.842L191.55 109.869V137H177.959C167.181 137 164.358 136.973 164.321 136.87V136.874Z" fill="#FF3333"/>
</svg>
