<svg width="46" height="40" viewBox="0 0 46 40" fill="none" xmlns="http://www.w3.org/2000/svg">
<path d="M27.6 6.15385V3.07692H30.6667V0H15.3333V3.07692H18.4V6.15385H21.4667V9.23077H24.5333V6.15385H27.6ZM42.9333 9.23077V6.15385H39.8667V3.07692H36.8V0H33.7333V3.07692H30.6667V6.15385H27.6V9.23077H24.5333V12.3077H46V9.23077H42.9333ZM30.6667 24.6154H27.6V21.5385H24.5333V18.4615H21.4667V21.5385H18.4V24.6154H15.3333V27.6923H12.2667V30.7692H15.3333V33.8462H18.4V36.9231H21.4667V40H24.5333V36.9231H27.6V33.8462H30.6667V30.7692H33.7333V27.6923H30.6667V24.6154ZM24.5333 18.4615H27.6V21.5385H30.6667V24.6154H33.7333V27.6923H36.8V24.6154H39.8667V21.5385H42.9333V18.4615H46V15.3846H24.5333V18.4615ZM15.3333 24.6154V21.5385H18.4V18.4615H21.4667V15.3846H0V18.4615H3.06667V21.5385H6.13333V24.6154H9.2V27.6923H12.2667V24.6154H15.3333ZM18.4 6.15385H15.3333V3.07692H12.2667V0H9.2V3.07692H6.13333V6.15385H3.06667V9.23077H0V12.3077H21.4667V9.23077H18.4V6.15385Z" fill="#FF3333"/>
</svg>
