<svg width="254" height="145" viewBox="0 0 254 145" fill="none" xmlns="http://www.w3.org/2000/svg">
<g filter="url(#filter0_d_8083_342)">
<mask id="path-1-inside-1_8083_342" fill="white">
<path d="M4.02385 123.46L4.05115 109.917L17.8161 109.893L31.5845 109.866V96.2714C31.5845 85.8313 31.6118 82.6429 31.7073 82.5506C31.8027 82.4549 34.9806 82.4276 45.3972 82.4276H58.9644V55.0884L45.2983 55.0611L31.6357 55.0372L31.5845 27.6468H4V0H31.5845V27.6468H45.1142C52.5542 27.6468 58.7155 27.6741 58.8042 27.7083C58.9508 27.7629 58.9644 29.0684 58.9644 41.4291V55.085H86.2421V82.4241H58.9644L58.9372 96.1177L58.9133 109.811L31.5845 109.862V136.997H4L4.02385 123.457V123.46ZM86.2864 136.874C86.2591 136.802 86.2523 130.709 86.2626 123.33L86.2898 109.917L99.9525 109.893L113.615 109.866V96.2099C113.615 83.8492 113.632 82.5472 113.775 82.4891C113.864 82.455 120.002 82.4276 127.414 82.4276H140.893V55.0884L127.278 55.0611L113.663 55.0372L113.639 41.3402L113.615 27.6468L99.9525 27.6194L86.2898 27.5955V0.051311H113.567L113.591 13.8473L113.619 27.6434L127.23 27.6706L140.842 27.6946L140.869 41.3881L140.893 55.0816L154.556 55.1055L168.218 55.1329L168.245 68.7751L168.269 82.4208H140.889V109.862H113.612L113.585 123.402L113.561 136.942L99.9457 136.966C89.1063 136.986 86.3205 136.966 86.2796 136.863L86.2864 136.874ZM168.321 136.874C168.293 136.802 168.286 130.712 168.297 123.334L168.324 109.921L181.939 109.897L195.55 109.869V96.2748C195.55 85.8347 195.581 82.6463 195.673 82.554C195.769 82.4584 198.946 82.431 209.363 82.431H222.93V55.0918H209.302C196.969 55.0918 195.67 55.0782 195.612 54.9312C195.578 54.8424 195.55 48.6672 195.55 41.2104V27.6502H168.273L168.3 13.8507L168.324 0.0547317L181.939 0.0273659L195.55 0.00342073V27.6502H209.08C216.52 27.6502 222.681 27.6775 222.77 27.7117C222.917 27.7664 222.93 29.0718 222.93 41.4291V55.0884L236.44 55.1123L249.949 55.1397L249.976 68.7819L250 82.4276H222.927L222.903 96.1211L222.876 109.815L209.213 109.842L195.55 109.869V137H181.959C171.181 137 168.358 136.973 168.321 136.87V136.874Z"/>
</mask>
<path d="M4.02385 123.46L4.05115 109.917L17.8161 109.893L31.5845 109.866V96.2714C31.5845 85.8313 31.6118 82.6429 31.7073 82.5506C31.8027 82.4549 34.9806 82.4276 45.3972 82.4276H58.9644V55.0884L45.2983 55.0611L31.6357 55.0372L31.5845 27.6468H4V0H31.5845V27.6468H45.1142C52.5542 27.6468 58.7155 27.6741 58.8042 27.7083C58.9508 27.7629 58.9644 29.0684 58.9644 41.4291V55.085H86.2421V82.4241H58.9644L58.9372 96.1177L58.9133 109.811L31.5845 109.862V136.997H4L4.02385 123.457V123.46ZM86.2864 136.874C86.2591 136.802 86.2523 130.709 86.2626 123.33L86.2898 109.917L99.9525 109.893L113.615 109.866V96.2099C113.615 83.8492 113.632 82.5472 113.775 82.4891C113.864 82.455 120.002 82.4276 127.414 82.4276H140.893V55.0884L127.278 55.0611L113.663 55.0372L113.639 41.3402L113.615 27.6468L99.9525 27.6194L86.2898 27.5955V0.051311H113.567L113.591 13.8473L113.619 27.6434L127.23 27.6706L140.842 27.6946L140.869 41.3881L140.893 55.0816L154.556 55.1055L168.218 55.1329L168.245 68.7751L168.269 82.4208H140.889V109.862H113.612L113.585 123.402L113.561 136.942L99.9457 136.966C89.1063 136.986 86.3205 136.966 86.2796 136.863L86.2864 136.874ZM168.321 136.874C168.293 136.802 168.286 130.712 168.297 123.334L168.324 109.921L181.939 109.897L195.55 109.869V96.2748C195.55 85.8347 195.581 82.6463 195.673 82.554C195.769 82.4584 198.946 82.431 209.363 82.431H222.93V55.0918H209.302C196.969 55.0918 195.67 55.0782 195.612 54.9312C195.578 54.8424 195.55 48.6672 195.55 41.2104V27.6502H168.273L168.3 13.8507L168.324 0.0547317L181.939 0.0273659L195.55 0.00342073V27.6502H209.08C216.52 27.6502 222.681 27.6775 222.77 27.7117C222.917 27.7664 222.93 29.0718 222.93 41.4291V55.0884L236.44 55.1123L249.949 55.1397L249.976 68.7819L250 82.4276H222.927L222.903 96.1211L222.876 109.815L209.213 109.842L195.55 109.869V137H181.959C171.181 137 168.358 136.973 168.321 136.87V136.874Z" fill="white"/>
<path d="M4.02385 123.46H3.02385L5.02385 123.462L4.02385 123.46ZM4.05115 109.917L4.04941 108.917L3.05316 108.919L3.05116 109.915L4.05115 109.917ZM17.8161 109.893L17.8179 110.893L17.8181 110.893L17.8161 109.893ZM31.5845 109.866L31.5865 110.866L32.5845 110.864V109.866H31.5845ZM31.7073 82.5506L32.4022 83.2697L32.4088 83.2634L32.4152 83.2569L31.7073 82.5506ZM58.9644 82.4276V83.4276H59.9644V82.4276H58.9644ZM58.9644 55.0884H59.9644V54.0904L58.9664 54.0884L58.9644 55.0884ZM45.2983 55.0611L45.3003 54.0611L45.3001 54.0611L45.2983 55.0611ZM31.6357 55.0372L30.6357 55.039L30.6375 56.0354L31.6339 56.0372L31.6357 55.0372ZM4 27.6468H3V28.6468H4V27.6468ZM4 0V-1H3V0H4ZM31.5845 0H32.5845V-1H31.5845V0ZM58.8042 27.7083L58.4445 28.6414L58.4548 28.6452L58.8042 27.7083ZM58.9644 55.085H57.9644V56.085H58.9644V55.085ZM86.2421 55.085H87.2421V54.085H86.2421V55.085ZM86.2421 82.4241V83.4241H87.2421V82.4241H86.2421ZM58.9644 82.4241V81.4241H57.9664L57.9644 82.4221L58.9644 82.4241ZM58.9372 96.1177L57.9372 96.1157L57.9372 96.1159L58.9372 96.1177ZM58.9133 109.811L58.9152 110.811L59.9116 110.809L59.9133 109.813L58.9133 109.811ZM31.5845 109.862L31.5826 108.862L30.5845 108.864V109.862H31.5845ZM31.5845 136.997V137.997H32.5845V136.997H31.5845ZM4 136.997L3 136.995L2.99824 137.997H4V136.997ZM4.02385 123.457H5.02385L3.02385 123.455L4.02385 123.457ZM86.2864 136.874L85.4537 137.427L87.2212 136.518L86.2864 136.874ZM86.2626 123.33L85.2626 123.328L85.2626 123.329L86.2626 123.33ZM86.2898 109.917L86.2881 108.917L85.2918 108.919L85.2898 109.915L86.2898 109.917ZM99.9525 109.893L99.9543 110.893L99.9545 110.893L99.9525 109.893ZM113.615 109.866L113.617 110.866L114.615 110.864V109.866H113.615ZM113.775 82.4891L113.416 81.5561L113.408 81.5592L113.4 81.5625L113.775 82.4891ZM140.893 82.4276V83.4276H141.893V82.4276H140.893ZM140.893 55.0884H141.893V54.0904L140.895 54.0884L140.893 55.0884ZM127.278 55.0611L127.28 54.0611L127.28 54.0611L127.278 55.0611ZM113.663 55.0372L112.663 55.0389L112.665 56.0354L113.661 56.0372L113.663 55.0372ZM113.639 41.3402L114.639 41.3385L114.639 41.3385L113.639 41.3402ZM113.615 27.6468L114.615 27.645L114.613 26.6488L113.617 26.6468L113.615 27.6468ZM99.9525 27.6194L99.9545 26.6194L99.9543 26.6194L99.9525 27.6194ZM86.2898 27.5955H85.2898V28.5937L86.2881 28.5955L86.2898 27.5955ZM86.2898 0.051311V-0.948689H85.2898V0.051311H86.2898ZM113.567 0.051311L114.567 0.0495795L114.566 -0.948689H113.567V0.051311ZM113.591 13.8473L112.591 13.849L112.591 13.8493L113.591 13.8473ZM113.619 27.6434L112.619 27.6453L112.621 28.6414L113.617 28.6434L113.619 27.6434ZM127.23 27.6706L127.228 28.6706L127.228 28.6706L127.23 27.6706ZM140.842 27.6946L141.842 27.6926L141.84 26.6963L140.843 26.6946L140.842 27.6946ZM140.869 41.3881L141.869 41.3864L141.869 41.3861L140.869 41.3881ZM140.893 55.0816L139.893 55.0834L139.895 56.0799L140.891 56.0816L140.893 55.0816ZM154.556 55.1055L154.558 54.1055L154.557 54.1055L154.556 55.1055ZM168.218 55.1329L169.218 55.1309L169.216 54.1349L168.22 54.1329L168.218 55.1329ZM168.245 68.7751L169.245 68.7733L169.245 68.7731L168.245 68.7751ZM168.269 82.4208V83.4208H169.271L169.269 82.419L168.269 82.4208ZM140.889 82.4208V81.4208H139.889V82.4208H140.889ZM140.889 109.862V110.862H141.889V109.862H140.889ZM113.612 109.862V108.862H112.614L112.612 109.86L113.612 109.862ZM113.585 123.402L112.585 123.4L112.585 123.4L113.585 123.402ZM113.561 136.942L113.562 137.942L114.559 137.94L114.561 136.944L113.561 136.942ZM99.9457 136.966L99.9439 135.966L99.9438 135.966L99.9457 136.966ZM86.2796 136.863L87.1123 136.31L85.3508 137.234L86.2796 136.863ZM168.321 136.874L167.386 137.229L169.321 136.874H168.321ZM168.297 123.334L167.297 123.332L167.297 123.332L168.297 123.334ZM168.324 109.921L168.322 108.921L167.326 108.922L167.324 109.919L168.324 109.921ZM181.939 109.897L181.941 110.897L181.941 110.897L181.939 109.897ZM195.673 82.554L194.965 81.8477L195.673 82.554ZM222.93 82.431V83.431H223.93V82.431H222.93ZM222.93 55.0918H223.93V54.0918H222.93V55.0918ZM195.612 54.9312L194.678 55.2895L194.682 55.2981L195.612 54.9312ZM168.273 27.6502L167.273 27.6482L167.271 28.6502H168.273V27.6502ZM168.3 13.8507L169.3 13.8527L169.3 13.8524L168.3 13.8507ZM168.324 0.0547317L168.322 -0.945266L167.326 -0.943264L167.324 0.053003L168.324 0.0547317ZM181.939 0.0273659L181.937 -0.972633L181.937 -0.972632L181.939 0.0273659ZM195.55 0.00342073H196.55V-0.99834L195.549 -0.996578L195.55 0.00342073ZM222.77 27.7117L222.41 28.6448L222.421 28.6487L222.77 27.7117ZM222.93 55.0884H221.93V56.0866L222.929 56.0884L222.93 55.0884ZM236.44 55.1123L236.442 54.1123L236.441 54.1123L236.44 55.1123ZM249.949 55.1397L250.949 55.1377L250.947 54.1417L249.951 54.1397L249.949 55.1397ZM249.976 68.7819L250.976 68.7802L250.976 68.7799L249.976 68.7819ZM250 82.4276V83.4276H251.002L251 82.4258L250 82.4276ZM222.927 82.4276V81.4276H221.929L221.927 82.4258L222.927 82.4276ZM222.903 96.1211L223.903 96.1231L223.903 96.1228L222.903 96.1211ZM222.876 109.815L222.878 110.815L223.874 110.813L223.876 109.817L222.876 109.815ZM209.213 109.842L209.215 110.842L209.215 110.842L209.213 109.842ZM195.55 137V138H196.55V137H195.55ZM168.321 136.87L169.26 136.527L167.321 136.87H168.321ZM4.02385 123.46L5.02385 123.462L5.05115 109.919L4.05115 109.917L3.05116 109.915L3.02385 123.458L4.02385 123.46ZM4.05115 109.917L4.05289 110.917L17.8179 110.893L17.8161 109.893L17.8144 108.893L4.04941 108.917L4.05115 109.917ZM17.8161 109.893L17.8181 110.893L31.5865 110.866L31.5845 109.866L31.5825 108.866L17.8141 108.893L17.8161 109.893ZM31.5845 109.866H32.5845V96.2714H31.5845H30.5845V109.866H31.5845ZM31.5845 96.2714H32.5845C32.5845 91.0508 32.5913 87.648 32.6101 85.5394C32.6194 84.4837 32.6317 83.7607 32.6472 83.2989C32.6551 83.0657 32.6633 82.9133 32.671 82.8231C32.6751 82.7751 32.6773 82.7656 32.6751 82.7783C32.6743 82.7828 32.6682 82.8186 32.6524 82.8688C32.6444 82.8941 32.6283 82.9412 32.6004 82.9981C32.5769 83.0459 32.5177 83.1581 32.4022 83.2697L31.7073 82.5506L31.0123 81.8316C30.8119 82.0252 30.7498 82.2517 30.7447 82.2682C30.7232 82.3365 30.7115 82.3966 30.7053 82.4321C30.6921 82.5068 30.684 82.5855 30.6782 82.6539C30.6661 82.7964 30.6565 82.9899 30.6484 83.2316C30.632 83.7199 30.6195 84.4638 30.6101 85.5217C30.5913 87.6405 30.5845 91.0519 30.5845 96.2714H31.5845ZM31.7073 82.5506L32.4152 83.2569C32.2307 83.4418 32.0245 83.4961 32.0241 83.4962C31.9748 83.5116 31.9397 83.5176 31.9353 83.5184C31.9229 83.5206 31.9326 83.5183 31.9805 83.5142C32.0707 83.5066 32.2228 83.4983 32.4555 83.4904C32.9164 83.4749 33.6376 83.4626 34.6907 83.4532C36.7941 83.4344 40.1883 83.4276 45.3972 83.4276V82.4276V81.4276C40.1895 81.4276 36.7865 81.4344 34.6729 81.4532C33.6176 81.4627 32.8754 81.4751 32.388 81.4916C32.1466 81.4997 31.9534 81.5093 31.8109 81.5215C31.7424 81.5273 31.6639 81.5354 31.5893 81.5485C31.5538 81.5548 31.4942 81.5664 31.4267 81.5875C31.408 81.5933 31.1898 81.6534 30.9994 81.8443L31.7073 82.5506ZM45.3972 82.4276V83.4276H58.9644V82.4276V81.4276H45.3972V82.4276ZM58.9644 82.4276H59.9644V55.0884H58.9644H57.9644V82.4276H58.9644ZM58.9644 55.0884L58.9664 54.0884L45.3003 54.0611L45.2983 55.0611L45.2964 56.0611L58.9624 56.0884L58.9644 55.0884ZM45.2983 55.0611L45.3001 54.0611L31.6374 54.0372L31.6357 55.0372L31.6339 56.0372L45.2966 56.0611L45.2983 55.0611ZM31.6357 55.0372L32.6357 55.0353L32.5845 27.6449L31.5845 27.6468L30.5845 27.6486L30.6357 55.039L31.6357 55.0372ZM31.5845 27.6468V26.6468H4V27.6468V28.6468H31.5845V27.6468ZM4 27.6468H5V0H4H3V27.6468H4ZM4 0V1H31.5845V0V-1H4V0ZM31.5845 0H30.5845V27.6468H31.5845H32.5845V0H31.5845ZM31.5845 27.6468V28.6468H45.1142V27.6468V26.6468H31.5845V27.6468ZM45.1142 27.6468V28.6468C48.8332 28.6468 52.232 28.6536 54.7115 28.6647C55.9515 28.6702 56.9602 28.6769 57.6635 28.6842C58.0157 28.6879 58.2886 28.6917 58.4747 28.6956C58.5686 28.6976 58.6354 28.6995 58.6775 28.7011C58.6997 28.702 58.7073 28.7026 58.7057 28.7024C58.7046 28.7024 58.7016 28.7021 58.6971 28.7017C58.6929 28.7014 58.6848 28.7006 58.674 28.6993C58.6648 28.6981 58.6444 28.6955 58.6182 28.6906C58.6053 28.6882 58.5326 28.6753 58.4445 28.6413L58.8042 27.7083L59.1639 26.7752C59.0744 26.7407 58.9995 26.7272 58.9838 26.7243C58.9547 26.7189 58.9307 26.7157 58.9172 26.7141C58.8894 26.7107 58.8651 26.7088 58.8508 26.7077C58.8202 26.7055 58.7873 26.7039 58.7576 26.7027C58.6961 26.7003 58.6142 26.6981 58.5166 26.696C58.3198 26.6919 58.0385 26.688 57.6844 26.6843C56.9751 26.6769 55.9618 26.6703 54.7204 26.6647C52.2371 26.6536 48.8352 26.6468 45.1142 26.6468V27.6468ZM58.8042 27.7083L58.4548 28.6452C58.1404 28.528 57.9944 28.2954 57.9441 28.1992C57.8929 28.1013 57.8775 28.026 57.8768 28.0227C57.874 28.0099 57.8829 28.0504 57.8934 28.2046C57.9131 28.496 57.9285 29.0241 57.9394 29.9655C57.961 31.8365 57.9644 35.2457 57.9644 41.4291H58.9644H59.9644C59.9644 35.2517 59.961 31.8279 59.9392 29.9423C59.9284 29.0054 59.9128 28.4244 59.8888 28.0694C59.8773 27.9003 59.8612 27.7333 59.8295 27.5904C59.8144 27.522 59.7837 27.401 59.7162 27.2719C59.6495 27.1446 59.4863 26.8954 59.1536 26.7713L58.8042 27.7083ZM58.9644 41.4291H57.9644V55.085H58.9644H59.9644V41.4291H58.9644ZM58.9644 55.085V56.085H86.2421V55.085V54.085H58.9644V55.085ZM86.2421 55.085H85.2421V82.4241H86.2421H87.2421V55.085H86.2421ZM86.2421 82.4241V81.4241H58.9644V82.4241V83.4241H86.2421V82.4241ZM58.9644 82.4241L57.9644 82.4221L57.9372 96.1157L58.9372 96.1177L59.9372 96.1196L59.9644 82.4261L58.9644 82.4241ZM58.9372 96.1177L57.9372 96.1159L57.9133 109.809L58.9133 109.811L59.9133 109.813L59.9372 96.1194L58.9372 96.1177ZM58.9133 109.811L58.9114 108.811L31.5826 108.862L31.5845 109.862L31.5864 110.862L58.9152 110.811L58.9133 109.811ZM31.5845 109.862H30.5845V136.997H31.5845H32.5845V109.862H31.5845ZM31.5845 136.997V135.997H4V136.997V137.997H31.5845V136.997ZM4 136.997L5 136.998L5.02385 123.459L4.02385 123.457L3.02385 123.455L3 136.995L4 136.997ZM4.02385 123.457H3.02385V123.46H4.02385H5.02385V123.457H4.02385ZM86.2864 136.874L87.2212 136.518C87.2595 136.619 87.2718 136.704 87.2728 136.71C87.2769 136.736 87.2791 136.755 87.2799 136.763C87.2809 136.773 87.2815 136.78 87.2817 136.784C87.282 136.788 87.2822 136.79 87.2822 136.791C87.2822 136.791 87.2817 136.782 87.2811 136.76C87.2798 136.718 87.2784 136.651 87.277 136.559C87.2743 136.375 87.2719 136.106 87.2697 135.758C87.2654 135.064 87.2623 134.067 87.2604 132.84C87.2566 130.387 87.2574 127.02 87.2626 123.332L86.2626 123.33L85.2626 123.329C85.2574 127.019 85.2566 130.388 85.2604 132.843C85.2623 134.071 85.2654 135.072 85.2697 135.771C85.2719 136.12 85.2744 136.396 85.2772 136.588C85.2786 136.684 85.2802 136.763 85.282 136.821C85.2829 136.85 85.284 136.88 85.2856 136.908C85.2864 136.921 85.2878 136.943 85.2904 136.968C85.2916 136.98 85.2942 137.003 85.2988 137.031C85.3001 137.04 85.3129 137.127 85.3516 137.229L86.2864 136.874ZM86.2626 123.33L87.2626 123.332L87.2898 109.919L86.2898 109.917L85.2898 109.915L85.2626 123.328L86.2626 123.33ZM86.2898 109.917L86.2916 110.917L99.9543 110.893L99.9525 109.893L99.9508 108.893L86.2881 108.917L86.2898 109.917ZM99.9525 109.893L99.9545 110.893L113.617 110.866L113.615 109.866L113.613 108.866L99.9505 108.893L99.9525 109.893ZM113.615 109.866H114.615V96.2099H113.615H112.615V109.866H113.615ZM113.615 96.2099H114.615C114.615 90.0267 114.619 86.6183 114.642 84.7478C114.653 83.8069 114.668 83.2784 114.688 82.9864C114.698 82.8322 114.707 82.7899 114.705 82.8005C114.704 82.8028 114.69 82.8749 114.642 82.9696C114.596 83.0601 114.458 83.2915 114.151 83.4158L113.775 82.4891L113.4 81.5625C113.075 81.694 112.92 81.9424 112.858 82.0644C112.794 82.1906 112.765 82.3087 112.75 82.3763C112.72 82.5175 112.704 82.683 112.692 82.8522C112.668 83.2069 112.653 83.7873 112.642 84.7242C112.619 86.6095 112.615 90.0324 112.615 96.2099H113.615ZM113.775 82.4891L114.135 83.4222C114.047 83.4561 113.975 83.469 113.962 83.4714C113.936 83.4763 113.915 83.4789 113.906 83.4801C113.895 83.4814 113.887 83.4822 113.883 83.4826C113.878 83.483 113.875 83.4832 113.874 83.4833C113.872 83.4834 113.88 83.4829 113.902 83.482C113.944 83.4803 114.01 83.4784 114.104 83.4764C114.289 83.4725 114.561 83.4687 114.912 83.465C115.613 83.4577 116.617 83.4511 117.853 83.4455C120.323 83.4344 123.709 83.4276 127.414 83.4276V82.4276V81.4276C123.707 81.4276 120.318 81.4344 117.844 81.4455C116.607 81.4511 115.598 81.4577 114.891 81.4651C114.538 81.4688 114.258 81.4728 114.062 81.4769C113.965 81.4789 113.883 81.4811 113.822 81.4836C113.792 81.4848 113.759 81.4864 113.729 81.4886C113.714 81.4896 113.69 81.4916 113.662 81.495C113.649 81.4967 113.625 81.4998 113.595 81.5052C113.58 81.5082 113.505 81.5217 113.416 81.5561L113.775 82.4891ZM127.414 82.4276V83.4276H140.893V82.4276V81.4276H127.414V82.4276ZM140.893 82.4276H141.893V55.0884H140.893H139.893V82.4276H140.893ZM140.893 55.0884L140.895 54.0884L127.28 54.0611L127.278 55.0611L127.276 56.0611L140.891 56.0884L140.893 55.0884ZM127.278 55.0611L127.28 54.0611L113.665 54.0372L113.663 55.0372L113.661 56.0372L127.276 56.0611L127.278 55.0611ZM113.663 55.0372L114.663 55.0354L114.639 41.3385L113.639 41.3402L112.639 41.342L112.663 55.0389L113.663 55.0372ZM113.639 41.3402L114.639 41.3385L114.615 27.645L113.615 27.6468L112.615 27.6485L112.639 41.342L113.639 41.3402ZM113.615 27.6468L113.617 26.6468L99.9545 26.6194L99.9525 27.6194L99.9505 28.6194L113.613 28.6468L113.615 27.6468ZM99.9525 27.6194L99.9543 26.6194L86.2916 26.5955L86.2898 27.5955L86.2881 28.5955L99.9508 28.6194L99.9525 27.6194ZM86.2898 27.5955H87.2898V0.051311H86.2898H85.2898V27.5955H86.2898ZM86.2898 0.051311V1.05131H113.567V0.051311V-0.948689H86.2898V0.051311ZM113.567 0.051311L112.567 0.0530425L112.591 13.849L113.591 13.8473L114.591 13.8456L114.567 0.0495795L113.567 0.051311ZM113.591 13.8473L112.591 13.8493L112.619 27.6453L113.619 27.6434L114.619 27.6414L114.591 13.8453L113.591 13.8473ZM113.619 27.6434L113.617 28.6434L127.228 28.6706L127.23 27.6706L127.232 26.6706L113.621 26.6434L113.619 27.6434ZM127.23 27.6706L127.228 28.6706L140.84 28.6946L140.842 27.6946L140.843 26.6946L127.232 26.6706L127.23 27.6706ZM140.842 27.6946L139.842 27.6966L139.869 41.3901L140.869 41.3881L141.869 41.3861L141.842 27.6926L140.842 27.6946ZM140.869 41.3881L139.869 41.3898L139.893 55.0834L140.893 55.0816L141.893 55.0799L141.869 41.3864L140.869 41.3881ZM140.893 55.0816L140.891 56.0816L154.554 56.1055L154.556 55.1055L154.557 54.1055L140.895 54.0816L140.893 55.0816ZM154.556 55.1055L154.554 56.1055L168.216 56.1329L168.218 55.1329L168.22 54.1329L154.558 54.1055L154.556 55.1055ZM168.218 55.1329L167.218 55.1349L167.245 68.7771L168.245 68.7751L169.245 68.7731L169.218 55.1309L168.218 55.1329ZM168.245 68.7751L167.245 68.7768L167.269 82.4225L168.269 82.4208L169.269 82.419L169.245 68.7733L168.245 68.7751ZM168.269 82.4208V81.4208H140.889V82.4208V83.4208H168.269V82.4208ZM140.889 82.4208H139.889V109.862H140.889H141.889V82.4208H140.889ZM140.889 109.862V108.862H113.612V109.862V110.862H140.889V109.862ZM113.612 109.862L112.612 109.86L112.585 123.4L113.585 123.402L114.585 123.404L114.612 109.864L113.612 109.862ZM113.585 123.402L112.585 123.4L112.561 136.94L113.561 136.942L114.561 136.944L114.585 123.404L113.585 123.402ZM113.561 136.942L113.559 135.942L99.9439 135.966L99.9457 136.966L99.9475 137.966L113.562 137.942L113.561 136.942ZM99.9457 136.966L99.9438 135.966C94.5231 135.976 91.1216 135.976 89.0707 135.961C88.0432 135.953 87.365 135.942 86.9446 135.926C86.7309 135.918 86.603 135.91 86.5355 135.903C86.4968 135.899 86.508 135.899 86.5433 135.907C86.557 135.91 86.6201 135.924 86.7002 135.96C86.7408 135.978 86.816 136.015 86.8991 136.08C86.9776 136.141 87.1203 136.272 87.2083 136.493L86.2796 136.863L85.3508 137.234C85.4401 137.458 85.5854 137.592 85.668 137.656C85.7551 137.724 85.8357 137.764 85.883 137.785C85.9768 137.827 86.0592 137.848 86.0981 137.856C86.184 137.876 86.2699 137.886 86.3324 137.893C86.4674 137.907 86.6486 137.917 86.8712 137.925C87.3233 137.941 88.0267 137.953 89.0557 137.961C91.1177 137.976 94.5288 137.976 99.9476 137.966L99.9457 136.966ZM86.2796 136.863L85.4469 137.417L85.4537 137.427L86.2864 136.874L87.1191 136.32L87.1123 136.31L86.2796 136.863ZM168.321 136.874L169.255 136.518C169.294 136.619 169.306 136.704 169.307 136.71C169.311 136.736 169.313 136.755 169.314 136.763C169.315 136.773 169.316 136.78 169.316 136.784C169.316 136.788 169.316 136.79 169.316 136.791C169.316 136.791 169.316 136.782 169.315 136.76C169.314 136.718 169.313 136.651 169.311 136.559C169.308 136.376 169.306 136.106 169.304 135.759C169.3 135.065 169.296 134.068 169.295 132.842C169.291 130.39 169.292 127.024 169.297 123.335L168.297 123.334L167.297 123.332C167.292 127.022 167.291 130.39 167.295 132.845C167.296 134.072 167.3 135.073 167.304 135.771C167.306 136.12 167.309 136.396 167.311 136.589C167.313 136.684 167.314 136.763 167.316 136.821C167.317 136.85 167.318 136.88 167.32 136.908C167.321 136.921 167.322 136.943 167.325 136.968C167.326 136.98 167.328 137.003 167.333 137.032C167.334 137.04 167.347 137.127 167.386 137.229L168.321 136.874ZM168.297 123.334L169.297 123.336L169.324 109.923L168.324 109.921L167.324 109.919L167.297 123.332L168.297 123.334ZM168.324 109.921L168.326 110.921L181.941 110.897L181.939 109.897L181.937 108.897L168.322 108.921L168.324 109.921ZM181.939 109.897L181.941 110.897L195.552 110.869L195.55 109.869L195.548 108.869L181.937 108.897L181.939 109.897ZM195.55 109.869H196.55V96.2748H195.55H194.55V109.869H195.55ZM195.55 96.2748H196.55C196.55 91.0544 196.558 87.6515 196.577 85.5431C196.587 84.4874 196.599 83.7641 196.615 83.302C196.622 83.0687 196.63 82.9156 196.638 82.8245C196.642 82.7761 196.644 82.7655 196.642 82.7768C196.642 82.7805 196.636 82.8147 196.621 82.8632C196.614 82.8876 196.599 82.9335 196.572 82.9893C196.551 83.0353 196.494 83.1475 196.381 83.2603L195.673 82.554L194.965 81.8477C194.771 82.0424 194.712 82.267 194.708 82.2806C194.688 82.3471 194.677 82.4058 194.671 82.4405C194.658 82.5138 194.651 82.5912 194.645 82.6593C194.633 82.8009 194.624 82.9937 194.616 83.2354C194.599 83.7233 194.587 84.4669 194.577 85.5249C194.558 87.6437 194.55 91.0552 194.55 96.2748H195.55ZM195.673 82.554L196.381 83.2603C196.197 83.4452 195.99 83.4995 195.99 83.4996C195.941 83.515 195.906 83.521 195.901 83.5218C195.889 83.524 195.898 83.5218 195.946 83.5177C196.037 83.51 196.189 83.5017 196.421 83.4939C196.882 83.4783 197.603 83.466 198.657 83.4566C200.76 83.4378 204.154 83.431 209.363 83.431V82.431V81.431C204.155 81.431 200.752 81.4378 198.639 81.4567C197.583 81.4661 196.841 81.4785 196.354 81.495C196.113 81.5032 195.919 81.5127 195.777 81.5249C195.708 81.5307 195.63 81.5389 195.555 81.552C195.52 81.5582 195.46 81.5698 195.393 81.5909C195.374 81.5968 195.156 81.6568 194.965 81.8477L195.673 82.554ZM209.363 82.431V83.431H222.93V82.431V81.431H209.363V82.431ZM222.93 82.431H223.93V55.0918H222.93H221.93V82.431H222.93ZM222.93 55.0918V54.0918H209.302V55.0918V56.0918H222.93V55.0918ZM209.302 55.0918V54.0918C203.132 54.0918 199.732 54.0884 197.865 54.0667C196.926 54.0558 196.4 54.0404 196.109 54.0206C195.955 54.0101 195.915 54.0012 195.927 54.004C195.931 54.0047 196.005 54.0199 196.101 54.0701C196.196 54.1195 196.422 54.2606 196.542 54.5643L195.612 54.9312L194.682 55.2981C194.809 55.6202 195.052 55.7786 195.178 55.8444C195.306 55.9109 195.426 55.9414 195.495 55.9566C195.637 55.9883 195.804 56.0045 195.973 56.016C196.328 56.0401 196.907 56.0557 197.842 56.0665C199.723 56.0884 203.138 56.0918 209.302 56.0918V55.0918ZM195.612 54.9312L196.545 54.5729C196.579 54.6607 196.592 54.7332 196.594 54.746C196.599 54.7721 196.602 54.7924 196.603 54.8016C196.604 54.8123 196.605 54.8203 196.605 54.8245C196.606 54.8289 196.606 54.8319 196.606 54.8329C196.606 54.8345 196.606 54.8268 196.605 54.8045C196.603 54.7622 196.601 54.6952 196.599 54.6011C196.595 54.4145 196.591 54.1411 196.588 53.7881C196.58 53.0831 196.574 52.0721 196.568 50.8293C196.557 48.3442 196.55 44.9378 196.55 41.2104H195.55H194.55C194.55 44.9398 194.557 48.3493 194.568 50.8382C194.574 52.0824 194.58 53.0979 194.588 53.8088C194.592 54.1638 194.595 54.4456 194.6 54.6429C194.602 54.7407 194.604 54.8227 194.606 54.8843C194.607 54.9139 194.609 54.9468 194.611 54.9774C194.612 54.9917 194.614 55.0159 194.618 55.0436C194.619 55.0572 194.622 55.081 194.628 55.11C194.631 55.1257 194.644 55.2003 194.678 55.2895L195.612 54.9312ZM195.55 41.2104H196.55V27.6502H195.55H194.55V41.2104H195.55ZM195.55 27.6502V26.6502H168.273V27.6502V28.6502H195.55V27.6502ZM168.273 27.6502L169.273 27.6522L169.3 13.8527L168.3 13.8507L167.3 13.8487L167.273 27.6482L168.273 27.6502ZM168.3 13.8507L169.3 13.8524L169.324 0.0564604L168.324 0.0547317L167.324 0.053003L167.3 13.849L168.3 13.8507ZM168.324 0.0547317L168.326 1.05473L181.941 1.02736L181.939 0.0273659L181.937 -0.972632L168.322 -0.945266L168.324 0.0547317ZM181.939 0.0273659L181.941 1.02736L195.552 1.00342L195.55 0.00342073L195.549 -0.996578L181.937 -0.972633L181.939 0.0273659ZM195.55 0.00342073H194.55V27.6502H195.55H196.55V0.00342073H195.55ZM195.55 27.6502V28.6502H209.08V27.6502V26.6502H195.55V27.6502ZM209.08 27.6502V28.6502C212.799 28.6502 216.198 28.657 218.677 28.6681C219.917 28.6737 220.926 28.6803 221.629 28.6876C221.982 28.6913 222.254 28.6951 222.441 28.699C222.534 28.701 222.601 28.7029 222.643 28.7046C222.666 28.7055 222.673 28.706 222.672 28.7059C222.671 28.7058 222.668 28.7056 222.663 28.7052C222.659 28.7048 222.651 28.704 222.64 28.7027C222.631 28.7015 222.61 28.6989 222.584 28.694C222.571 28.6916 222.498 28.6787 222.41 28.6448L222.77 27.7117L223.13 26.7786C223.04 26.7441 222.965 26.7307 222.95 26.7277C222.921 26.7223 222.897 26.7192 222.883 26.7175C222.855 26.7141 222.831 26.7122 222.817 26.7111C222.786 26.7089 222.753 26.7074 222.724 26.7062C222.662 26.7037 222.58 26.7015 222.483 26.6995C222.286 26.6953 222.004 26.6914 221.65 26.6877C220.941 26.6803 219.928 26.6737 218.686 26.6681C216.203 26.657 212.801 26.6502 209.08 26.6502V27.6502ZM222.77 27.7117L222.421 28.6487C222.106 28.5314 221.96 28.2988 221.91 28.2026C221.859 28.1048 221.843 28.0294 221.843 28.0261C221.84 28.0133 221.849 28.0538 221.859 28.208C221.879 28.4993 221.894 29.0273 221.905 29.9685C221.927 31.839 221.93 35.2474 221.93 41.4291H222.93H223.93C223.93 35.2534 223.927 31.8305 223.905 29.9453C223.894 29.0086 223.879 28.4277 223.855 28.0727C223.843 27.9037 223.827 27.7367 223.795 27.5938C223.78 27.5254 223.75 27.4044 223.682 27.2753C223.615 27.148 223.452 26.8988 223.12 26.7747L222.77 27.7117ZM222.93 41.4291H221.93V55.0884H222.93H223.93V41.4291H222.93ZM222.93 55.0884L222.929 56.0884L236.438 56.1123L236.44 55.1123L236.441 54.1123L222.932 54.0884L222.93 55.0884ZM236.44 55.1123L236.438 56.1123L249.947 56.1397L249.949 55.1397L249.951 54.1397L236.442 54.1123L236.44 55.1123ZM249.949 55.1397L248.949 55.1417L248.976 68.7839L249.976 68.7819L250.976 68.7799L250.949 55.1377L249.949 55.1397ZM249.976 68.7819L248.976 68.7837L249 82.4293L250 82.4276L251 82.4258L250.976 68.7802L249.976 68.7819ZM250 82.4276V81.4276H222.927V82.4276V83.4276H250V82.4276ZM222.927 82.4276L221.927 82.4258L221.903 96.1193L222.903 96.1211L223.903 96.1228L223.927 82.4293L222.927 82.4276ZM222.903 96.1211L221.903 96.1191L221.876 109.813L222.876 109.815L223.876 109.817L223.903 96.1231L222.903 96.1211ZM222.876 109.815L222.874 108.815L209.211 108.842L209.213 109.842L209.215 110.842L222.878 110.815L222.876 109.815ZM209.213 109.842L209.211 108.842L195.548 108.869L195.55 109.869L195.552 110.869L209.215 110.842L209.213 109.842ZM195.55 109.869H194.55V137H195.55H196.55V109.869H195.55ZM195.55 137V136H181.959V137V138H195.55V137ZM181.959 137V136C176.569 136 173.174 135.993 171.122 135.974C170.094 135.964 169.413 135.951 168.99 135.934C168.776 135.926 168.647 135.918 168.578 135.91C168.539 135.906 168.55 135.906 168.586 135.914C168.599 135.917 168.663 135.931 168.744 135.968C168.785 135.987 168.862 136.025 168.947 136.093C169.028 136.157 169.175 136.294 169.26 136.527L168.321 136.87L167.381 137.214C167.467 137.449 167.617 137.59 167.701 137.657C167.79 137.728 167.873 137.769 167.921 137.791C168.015 137.834 168.099 137.854 168.137 137.863C168.223 137.883 168.309 137.893 168.372 137.9C168.507 137.914 168.689 137.924 168.913 137.933C169.367 137.95 170.073 137.964 171.103 137.973C173.166 137.993 176.571 138 181.959 138V137ZM168.321 136.87H167.321V136.874H168.321H169.321V136.87H168.321Z" fill="black" mask="url(#path-1-inside-1_8083_342)"/>
</g>
<defs>
<filter id="filter0_d_8083_342" x="0" y="0" width="254" height="145" filterUnits="userSpaceOnUse" color-interpolation-filters="sRGB">
<feFlood flood-opacity="0" result="BackgroundImageFix"/>
<feColorMatrix in="SourceAlpha" type="matrix" values="0 0 0 0 0 0 0 0 0 0 0 0 0 0 0 0 0 0 127 0" result="hardAlpha"/>
<feOffset dy="4"/>
<feGaussianBlur stdDeviation="2"/>
<feComposite in2="hardAlpha" operator="out"/>
<feColorMatrix type="matrix" values="0 0 0 0 0 0 0 0 0 0 0 0 0 0 0 0 0 0 0.25 0"/>
<feBlend mode="normal" in2="BackgroundImageFix" result="effect1_dropShadow_8083_342"/>
<feBlend mode="normal" in="SourceGraphic" in2="effect1_dropShadow_8083_342" result="shape"/>
</filter>
</defs>
</svg>
